<svg width="21" height="24" viewBox="0 0 21 24" fill="none" xmlns="http://www.w3.org/2000/svg">
<path d="M13.663 0.355103H6.59779C5.3025 0.355103 4.24271 1.41489 4.24271 2.71018V5.65402H0.121338V6.83155H1.88764V21.5508C1.88764 22.846 2.94742 23.9058 4.24271 23.9058H16.0181C17.3134 23.9058 18.3731 22.846 18.3731 21.5508V6.83155H20.1395V5.65402H16.0181V2.71018C16.0181 1.41489 14.9583 0.355103 13.663 0.355103ZM5.42025 2.71018C5.42025 2.06076 5.94838 1.53264 6.59779 1.53264H13.663C14.3124 1.53264 14.8405 2.06076 14.8405 2.71018V5.65402H5.42025V2.71018ZM17.1956 21.5508C17.1956 22.2002 16.6675 22.7283 16.0181 22.7283H4.24271C3.5933 22.7283 3.06518 22.2002 3.06518 21.5508V6.83155H17.1956V21.5508Z" fill="#141414"/>
<path d="M8.36406 10.3641H7.18652V18.6069H8.36406V10.3641Z" fill="#141414"/>
<path d="M13.0743 10.3641H11.8967V18.6069H13.0743V10.3641Z" fill="#141414"/>
</svg>
