<svg width="86" height="86" viewBox="0 0 86 86" fill="none" xmlns="http://www.w3.org/2000/svg">
<path d="M43 50.525C38.9688 50.525 35.475 47.3 35.475 43C35.475 38.9687 38.7 35.475 43 35.475C47.0312 35.475 50.525 38.7 50.525 43C50.525 47.0312 47.0312 50.525 43 50.525Z" fill="#141414"/>
<path fill-rule="evenodd" clip-rule="evenodd" d="M52.1375 24.725H33.8625C31.7125 24.9937 30.6375 25.2625 29.8313 25.5312C28.7563 25.8 27.95 26.3375 27.1438 27.1437C26.5058 27.7817 26.2043 28.4197 25.84 29.1908C25.744 29.394 25.6433 29.6071 25.5312 29.8312C25.4897 29.956 25.4417 30.0871 25.3902 30.2277C25.1091 30.9958 24.725 32.0451 24.725 33.8625V52.1375C24.9937 54.2875 25.2625 55.3625 25.5312 56.1687C25.8 57.2437 26.3375 58.05 27.1438 58.8562C27.7817 59.4942 28.4197 59.7957 29.1908 60.16C29.3942 60.2561 29.6069 60.3566 29.8313 60.4687C29.956 60.5103 30.0871 60.5583 30.2277 60.6098C30.9958 60.8909 32.0451 61.275 33.8625 61.275H52.1375C54.2875 61.0062 55.3625 60.7375 56.1688 60.4687C57.2437 60.2 58.05 59.6625 58.8563 58.8562C59.4942 58.2183 59.7957 57.5803 60.16 56.8092C60.2561 56.6058 60.3566 56.3931 60.4688 56.1687C60.5103 56.044 60.5583 55.9129 60.6098 55.7723C60.8909 55.0042 61.275 53.9549 61.275 52.1375V33.8625C61.0062 31.7125 60.7375 30.6375 60.4688 29.8312C60.2 28.7562 59.6625 27.95 58.8563 27.1437C58.2183 26.5058 57.5803 26.2043 56.8092 25.84C56.6061 25.744 56.3927 25.6432 56.1688 25.5312C56.044 25.4897 55.9129 25.4417 55.7723 25.3902C55.0042 25.1091 53.9549 24.725 52.1375 24.725ZM43 31.4437C36.55 31.4437 31.4438 36.55 31.4438 43C31.4438 49.45 36.55 54.5562 43 54.5562C49.45 54.5562 54.5562 49.45 54.5562 43C54.5562 36.55 49.45 31.4437 43 31.4437ZM57.5125 31.175C57.5125 32.6593 56.3093 33.8625 54.825 33.8625C53.3407 33.8625 52.1375 32.6593 52.1375 31.175C52.1375 29.6907 53.3407 28.4875 54.825 28.4875C56.3093 28.4875 57.5125 29.6907 57.5125 31.175Z" fill="#141414"/>
<path fill-rule="evenodd" clip-rule="evenodd" d="M0 43C0 19.2518 19.2518 0 43 0C66.7482 0 86 19.2518 86 43C86 66.7482 66.7482 86 43 86C19.2518 86 0 66.7482 0 43ZM33.8625 20.6937H52.1375C54.5562 20.9625 56.1688 21.2312 57.5125 21.7687C59.125 22.575 60.2 23.1125 61.5438 24.4562C62.8875 25.8 63.6938 27.1437 64.2313 28.4875C64.7688 29.8312 65.3063 31.4437 65.3063 33.8625V52.1375C65.0375 54.5562 64.7688 56.1687 64.2313 57.5125C63.425 59.125 62.8875 60.2 61.5438 61.5437C60.2 62.8875 58.8563 63.6937 57.5125 64.2312C56.1688 64.7687 54.5562 65.3062 52.1375 65.3062H33.8625C31.4438 65.0375 29.8313 64.7687 28.4875 64.2312C26.875 63.425 25.8 62.8875 24.4563 61.5437C23.1125 60.2 22.3062 58.8562 21.7688 57.5125C21.2313 56.1687 20.6938 54.5562 20.6938 52.1375V33.8625C20.9625 31.4437 21.2313 29.8312 21.7688 28.4875C22.575 26.875 23.1125 25.8 24.4563 24.4562C25.8 23.1125 27.1438 22.3062 28.4875 21.7687C29.8313 21.2312 31.4438 20.6937 33.8625 20.6937Z" fill="#141414"/>
</svg>
