<svg width="60" height="60" viewBox="0 0 71 99" fill="none" xmlns="http://www.w3.org/2000/svg">
<path d="M30.841 56.7663C25.0488 36.6968 14.3789 18.2277 0 3.15016L3.51852 0C17.1988 16.2589 27.005 35.8711 31.5778 56.5758L30.8537 56.7663H30.841Z" fill="#ffffff8c"/>
<path d="M34.6898 98.1629C35.1725 87.1373 34.2579 76.0737 32.035 65.3276L34.1182 64.9338C35.9346 75.9466 36.3792 87.15 35.4392 98.2137L34.6898 98.1629Z" fill="#ffffff8c"/>
<path d="M35.5027 98.2137C32.4415 62.9269 44.1529 26.7382 67.4235 0L70.942 3.15016C53.2605 22.1019 41.4855 46.4521 37.6494 72.1233C36.3284 80.71 35.8711 89.4492 36.2522 98.1629L35.5027 98.2137Z" fill="#ffffff8c"/>
<path d="M59.5482 78.9953L20.1459 43.6449L22.6609 41.0283L59.5482 78.9953Z" fill="#ffffff8c"/>
<path d="M34.2199 52.9938L34.601 53.5146L32.3146 51.8379L32.937 52.0411L34.2199 52.9938Z" fill="#ffffff8c"/>
<path d="M22.4957 63.9304L45.1692 65.1244L22.4957 66.3311V63.9304Z" fill="#ffffff8c"/>
<path d="M7.98975 40.6599C6.91006 52.1427 8.33271 64.0701 12.7912 74.9051C16.9575 84.8129 24.9472 97.3119 36.6968 98.2264C42.6034 98.0994 47.7351 94.1998 51.5965 89.9954C63.2191 76.7723 67.2584 58.0365 65.7849 40.9012L70.4975 40.8377C69.1891 60.8691 62.7364 84.5715 45.22 96.1433C36.5063 101.783 27.6401 97.2102 21.3398 90.3383C9.05674 76.8867 4.31881 58.4938 3.27722 40.5583L7.98975 40.6599Z" fill="#ffffff8c"/>
<path d="M12.7531 76.0483L34.1182 53.0954" stroke="#ffffff8c" stroke-width="1.86" stroke-miterlimit="10"/>
</svg>
