<svg width="86" height="86" viewBox="0 0 86 86" fill="none" xmlns="http://www.w3.org/2000/svg">
<path fill-rule="evenodd" clip-rule="evenodd" d="M43 86C19.2518 86 0 66.7482 0 43C0 19.2518 19.2518 0 43 0C66.7482 0 86 19.2518 86 43C86 66.7482 66.7482 86 43 86ZM44.8593 32.2698C41.0082 33.8717 33.3112 37.1871 21.7685 42.216C19.8942 42.9614 18.9123 43.6906 18.8229 44.4036C18.6719 45.6086 20.1808 46.0831 22.2357 46.7292C22.5152 46.8171 22.8048 46.9082 23.1017 47.0047C25.1233 47.6618 27.8428 48.4306 29.2566 48.4612C30.5389 48.4889 31.9703 47.9602 33.5505 46.8751C44.3352 39.5951 49.9023 35.9155 50.2518 35.8361C50.4984 35.7802 50.8401 35.7098 51.0716 35.9156C51.3031 36.1214 51.2803 36.5111 51.2558 36.6156C51.1063 37.2529 45.183 42.7597 42.1177 45.6095C41.1621 46.4979 40.4843 47.1281 40.3457 47.272C40.0353 47.5944 39.719 47.8994 39.4149 48.1925C37.5368 50.0031 36.1283 51.3608 39.4929 53.578C41.1098 54.6435 42.4036 55.5246 43.6944 56.4036C45.104 57.3636 46.51 58.3211 48.3291 59.5135C48.7926 59.8173 49.2352 60.1329 49.6664 60.4403C51.3069 61.6098 52.7807 62.6605 54.6015 62.493C55.6596 62.3956 56.7524 61.4007 57.3075 58.4336C58.6192 51.4213 61.1975 36.2278 61.7934 29.9669C61.8456 29.4183 61.7799 28.7163 61.7272 28.4082C61.6744 28.1 61.5642 27.6609 61.1637 27.3359C60.6893 26.9509 59.9569 26.8698 59.6293 26.8753C58.1401 26.9018 55.8553 27.6962 44.8593 32.2698Z" fill="#141414"/>
</svg>
