<svg width="86" height="86" viewBox="0 0 86 86" fill="none" xmlns="http://www.w3.org/2000/svg">
<path fill-rule="evenodd" clip-rule="evenodd" d="M86 43C86 19.2518 66.7482 0 43 0C19.2518 0 0 19.2518 0 43C0 66.7482 19.2518 86 43 86C66.7482 86 86 66.7482 86 43ZM24.51 24.51C21.5 27.5487 21.5 32.4077 21.5 42.14V43.86C21.5 53.578 21.5 58.437 24.51 61.49C27.5487 64.5 32.4077 64.5 42.14 64.5H43.86C53.578 64.5 58.437 64.5 61.49 61.49C64.5 58.4513 64.5 53.5923 64.5 43.86V42.14C64.5 32.422 64.5 27.563 61.49 24.51C58.4513 21.5 53.5923 21.5 43.86 21.5H42.14C32.422 21.5 27.563 21.5 24.51 24.51Z" fill="#141414"/>
<path d="M44.376 52.4744C34.572 52.4744 28.982 45.7664 28.7527 34.5864H33.6833C33.841 42.785 37.453 46.2537 40.3197 46.9704V34.5864H44.9493V41.6527C47.773 41.3517 50.7543 38.1267 51.7577 34.572H56.373C55.9967 36.4121 55.2449 38.1548 54.1648 39.6912C53.0846 41.2277 51.6991 42.5248 50.095 43.5017C51.8851 44.3927 53.4661 45.6531 54.7335 47.1997C56.0009 48.7463 56.9261 50.5441 57.448 52.4744H52.3597C51.2703 49.0774 48.547 46.44 44.9493 46.0817V52.4744H44.376Z" fill="#141414"/>
</svg>
